<svg width="48" height="48" viewBox="0 0 48 48" fill="none" xmlns="http://www.w3.org/2000/svg">
<path fill-rule="evenodd" clip-rule="evenodd" d="M2.5 14C2.5 8.75329 6.75329 4.5 12 4.5H20C24.7363 4.5 28.6631 7.96602 29.3822 12.5H34.4182C35.8155 12.5 37.1605 13.0319 38.1799 13.9875L43.7617 19.2205C44.8708 20.2602 45.5 21.7127 45.5 23.2329V34C45.5 36.5766 43.7282 38.7394 41.3365 39.3365C40.7394 41.7282 38.5766 43.5 36 43.5C33.4824 43.5 31.36 41.8085 30.707 39.5H19.293C18.64 41.8085 16.5176 43.5 14 43.5C11.2551 43.5 8.97982 41.4892 8.56689 38.8602C5.01759 37.4839 2.5 34.0375 2.5 30V14ZM8.97718 35.7563C9.83576 33.8369 11.7614 32.5 14 32.5C16.5176 32.5 18.64 34.1915 19.293 36.5H26.5V14C26.5 10.4101 23.5899 7.5 20 7.5H12C8.41015 7.5 5.5 10.4101 5.5 14V30C5.5 32.4973 6.90928 34.668 8.97718 35.7563ZM29.5 36.5H30.707C31.36 34.1915 33.4824 32.5 36 32.5C38.4054 32.5 40.4502 34.0442 41.1971 36.1953C41.9734 35.7711 42.5 34.947 42.5 34V23.2329C42.5 22.5419 42.214 21.8817 41.7099 21.4091L36.1281 16.1762C35.6647 15.7418 35.0534 15.5 34.4182 15.5H29.5V36.5ZM14 35.5C12.6723 35.5 11.5854 36.5358 11.5048 37.8423C11.5016 37.8943 11.5 37.9468 11.5 38C11.5 39.3807 12.6193 40.5 14 40.5C15.3807 40.5 16.5 39.3807 16.5 38C16.5 36.6193 15.3807 35.5 14 35.5ZM36 35.5C34.6193 35.5 33.5 36.6193 33.5 38C33.5 39.3807 34.6193 40.5 36 40.5C37.3807 40.5 38.5 39.3807 38.5 38C38.5 36.6193 37.3807 35.5 36 35.5Z" fill="#141718"/>
<path fill-rule="evenodd" clip-rule="evenodd" d="M10.5 24C10.5 23.1716 11.1716 22.5 12 22.5H20C20.8284 22.5 21.5 23.1716 21.5 24C21.5 24.8284 20.8284 25.5 20 25.5H12C11.1716 25.5 10.5 24.8284 10.5 24Z" fill="#141718"/>
<path fill-rule="evenodd" clip-rule="evenodd" d="M14.5 16C14.5 15.1716 15.1716 14.5 16 14.5H20C20.8284 14.5 21.5 15.1716 21.5 16C21.5 16.8284 20.8284 17.5 20 17.5H16C15.1716 17.5 14.5 16.8284 14.5 16Z" fill="#141718"/>
</svg>
