<svg width="48" height="48" viewBox="0 0 48 48" fill="none" xmlns="http://www.w3.org/2000/svg">
<path fill-rule="evenodd" clip-rule="evenodd" d="M24 5.5C20.4101 5.5 17.5 8.41015 17.5 12V14.5H30.5V12C30.5 8.41015 27.5899 5.5 24 5.5ZM33.5 14.6178V12C33.5 6.75329 29.2467 2.5 24 2.5C18.7533 2.5 14.5 6.75329 14.5 12V14.6178C9.96602 15.3369 6.5 19.2637 6.5 24V36C6.5 41.2467 10.7533 45.5 16 45.5H32C37.2467 45.5 41.5 41.2467 41.5 36V24C41.5 19.2637 38.034 15.3369 33.5 14.6178ZM16 17.5C12.4101 17.5 9.5 20.4101 9.5 24V36C9.5 39.5899 12.4102 42.5 16 42.5H32C35.5899 42.5 38.5 39.5899 38.5 36V24C38.5 20.4101 35.5899 17.5 32 17.5H16ZM24 26.5C24.8284 26.5 25.5 27.1716 25.5 28V32C25.5 32.8284 24.8284 33.5 24 33.5C23.1716 33.5 22.5 32.8284 22.5 32V28C22.5 27.1716 23.1716 26.5 24 26.5Z" fill="#141718"/>
</svg>
