<svg width="48" height="48" viewBox="0 0 48 48" fill="none" xmlns="http://www.w3.org/2000/svg">
<path fill-rule="evenodd" clip-rule="evenodd" d="M2.5 16C2.5 10.7533 6.75329 6.5 12 6.5H36C41.2467 6.5 45.5 10.7533 45.5 16V32C45.5 37.2467 41.2467 41.5 36 41.5H12C6.75329 41.5 2.5 37.2467 2.5 32V16ZM12 9.5C8.41015 9.5 5.5 12.4101 5.5 16V32C5.5 35.5899 8.41015 38.5 12 38.5H36C39.5899 38.5 42.5 35.5899 42.5 32V16C42.5 12.4101 39.5899 9.5 36 9.5H12Z" fill="#141718"/>
<path d="M14 24C14 22.8954 13.1046 22 12 22C10.8954 22 10 22.8954 10 24C10 25.1046 10.8954 26 12 26C13.1046 26 14 25.1046 14 24Z" fill="#141718"/>
<path d="M38 24C38 22.8954 37.1046 22 36 22C34.8954 22 34 22.8954 34 24C34 25.1046 34.8954 26 36 26C37.1046 26 38 25.1046 38 24Z" fill="#141718"/>
<path fill-rule="evenodd" clip-rule="evenodd" d="M24 26.5C22.6193 26.5 21.5 25.3807 21.5 24C21.5 22.6193 22.6193 21.5 24 21.5C25.3807 21.5 26.5 22.6193 26.5 24C26.5 25.3807 25.3807 26.5 24 26.5ZM18.5 24C18.5 27.0376 20.9624 29.5 24 29.5C27.0376 29.5 29.5 27.0376 29.5 24C29.5 20.9624 27.0376 18.5 24 18.5C20.9624 18.5 18.5 20.9624 18.5 24Z" fill="#141718"/>
</svg>
